<?xml version="1.0" encoding="utf-8"?>
<!-- Generator: Adobe Illustrator 15.0.0, SVG Export Plug-In . SVG Version: 6.00 Build 0)  -->
<!DOCTYPE svg PUBLIC "-//W3C//DTD SVG 1.1//EN" "http://www.w3.org/Graphics/SVG/1.1/DTD/svg11.dtd">
<svg version="1.1" id="Layer_1" xmlns="http://www.w3.org/2000/svg" xmlns:xlink="http://www.w3.org/1999/xlink" x="0px" y="0px"
	 width="406px" height="200px" viewBox="0 0 406 200" enable-background="new 0 0 406 200" xml:space="preserve">
<rect x="0.899" y="-0.333" fill="#CCCCCC" width="403.869" height="200.333"/>
<g>
	<path fill="#FFFFFF" d="M129.089,104.237v-9.475h1.912v9.475H129.089z"/>
	<path fill="#FFFFFF" d="M132.799,104.237v-9.475h2.862l1.721,6.464l1.699-6.464h2.868v9.475h-1.777v-7.459l-1.879,7.459h-1.841
		l-1.876-7.459v7.459H132.799z"/>
	<path fill="#FFFFFF" d="M152.393,104.237h-2.081l-0.827-2.152h-3.787l-0.783,2.152h-2.027l3.688-9.475h2.022L152.393,104.237z
		 M148.871,100.489l-1.307-3.517l-1.28,3.517H148.871z"/>
	<path fill="#FFFFFF" d="M157.813,100.754v-1.597h4.125v3.773c-0.401,0.388-0.982,0.729-1.742,1.025
		c-0.76,0.296-1.53,0.441-2.311,0.441c-0.992,0-1.855-0.207-2.592-0.622c-0.737-0.415-1.291-1.011-1.662-1.785
		c-0.371-0.771-0.554-1.614-0.554-2.521c0-0.988,0.205-1.864,0.619-2.632c0.414-0.766,1.019-1.354,1.816-1.763
		c0.608-0.315,1.364-0.472,2.27-0.472c1.175,0,2.094,0.247,2.754,0.741c0.663,0.491,1.088,1.173,1.278,2.045l-1.901,0.355
		c-0.133-0.466-0.383-0.833-0.753-1.101c-0.368-0.271-0.829-0.405-1.378-0.405c-0.837,0-1.501,0.266-1.995,0.795
		c-0.492,0.531-0.738,1.316-0.738,2.359c0,1.124,0.249,1.967,0.749,2.529s1.156,0.845,1.965,0.845c0.399,0,0.802-0.08,1.206-0.237
		c0.403-0.156,0.749-0.347,1.036-0.572v-1.201H157.813z"/>
	<path fill="#FFFFFF" d="M163.702,104.237v-9.475h7.025v1.603h-5.112v2.101h4.757v1.597h-4.757v2.578h5.292v1.597H163.702z"/>
	<path fill="#FFFFFF" d="M176.207,104.237v-9.475h3.069c1.164,0,1.922,0.049,2.274,0.143c0.543,0.143,0.998,0.451,1.364,0.928
		c0.367,0.476,0.551,1.091,0.551,1.845c0,0.582-0.106,1.07-0.318,1.467c-0.212,0.396-0.479,0.707-0.806,0.933
		c-0.325,0.228-0.654,0.376-0.991,0.448c-0.457,0.093-1.118,0.138-1.984,0.138h-1.248v3.573H176.207z M178.119,96.365v2.688h1.046
		c0.754,0,1.258-0.049,1.513-0.147c0.255-0.1,0.456-0.255,0.599-0.466c0.145-0.211,0.217-0.457,0.217-0.737
		c0-0.345-0.103-0.629-0.305-0.853c-0.203-0.226-0.458-0.364-0.77-0.421c-0.226-0.043-0.686-0.065-1.375-0.065H178.119z"/>
	<path fill="#FFFFFF" d="M185.085,104.237V94.84h1.914v7.8h4.756v1.597H185.085z"/>
	<path fill="#FFFFFF" d="M201.661,104.237h-2.081l-0.826-2.152h-3.787l-0.783,2.152h-2.027l3.688-9.475h2.022L201.661,104.237z
		 M198.141,100.489l-1.305-3.517l-1.279,3.517H198.141z"/>
	<path fill="#FFFFFF" d="M208.739,100.754l1.854,0.588c-0.283,1.035-0.756,1.803-1.419,2.305c-0.659,0.501-1.498,0.751-2.516,0.751
		c-1.259,0-2.293-0.428-3.102-1.288c-0.812-0.859-1.215-2.033-1.215-3.525c0-1.577,0.406-2.803,1.221-3.674
		c0.812-0.872,1.885-1.309,3.211-1.309c1.16,0,2.101,0.343,2.824,1.027c0.431,0.406,0.755,0.987,0.969,1.746l-1.892,0.453
		c-0.112-0.492-0.347-0.88-0.701-1.164c-0.355-0.284-0.789-0.427-1.296-0.427c-0.704,0-1.273,0.253-1.71,0.756
		c-0.438,0.506-0.657,1.321-0.657,2.45c0,1.199,0.216,2.051,0.647,2.559c0.431,0.51,0.991,0.765,1.68,0.765
		c0.509,0,0.945-0.163,1.312-0.486S208.579,101.448,208.739,100.754z"/>
	<path fill="#FFFFFF" d="M212.234,104.237v-9.475h7.024v1.603h-5.112v2.101h4.758v1.597h-4.758v2.578h5.293v1.597H212.234z"/>
	<path fill="#FFFFFF" d="M221.069,104.237v-9.475h1.912v3.729h3.749v-3.729h1.912v9.475h-1.912v-4.144h-3.749v4.144H221.069z"/>
	<path fill="#FFFFFF" d="M230.231,99.559c0-0.966,0.146-1.775,0.434-2.43c0.215-0.483,0.51-0.917,0.883-1.299
		c0.372-0.384,0.78-0.668,1.226-0.854c0.59-0.249,1.27-0.374,2.041-0.374c1.396,0,2.512,0.433,3.351,1.299
		c0.839,0.867,1.257,2.069,1.257,3.614c0,1.528-0.415,2.725-1.247,3.59c-0.833,0.862-1.943,1.293-3.335,1.293
		c-1.408,0-2.528-0.428-3.36-1.288C230.649,102.25,230.231,101.065,230.231,99.559z M232.204,99.494
		c0,1.072,0.247,1.885,0.744,2.439c0.493,0.552,1.122,0.831,1.886,0.831s1.388-0.276,1.878-0.826
		c0.487-0.548,0.733-1.372,0.733-2.47c0-1.087-0.237-1.896-0.715-2.432c-0.475-0.532-1.108-0.801-1.896-0.801
		c-0.79,0-1.424,0.27-1.906,0.811C232.444,97.588,232.204,98.403,232.204,99.494z"/>
	<path fill="#FFFFFF" d="M240.968,104.237V94.84h1.912v7.8h4.756v1.597H240.968z"/>
	<path fill="#FFFFFF" d="M248.993,94.762h3.496c0.789,0,1.389,0.061,1.802,0.182c0.558,0.162,1.034,0.454,1.429,0.872
		c0.398,0.417,0.7,0.928,0.906,1.534c0.208,0.605,0.31,1.353,0.31,2.24c0,0.78-0.097,1.452-0.291,2.016
		c-0.236,0.69-0.575,1.248-1.015,1.674c-0.331,0.323-0.78,0.575-1.344,0.756c-0.421,0.133-0.986,0.201-1.693,0.201h-3.6V94.762z
		 M250.905,96.365v6.276h1.429c0.535,0,0.918-0.029,1.156-0.089c0.312-0.079,0.568-0.211,0.774-0.396
		c0.203-0.186,0.37-0.49,0.499-0.914c0.129-0.426,0.195-1.003,0.195-1.736c0-0.731-0.066-1.293-0.195-1.687
		c-0.129-0.392-0.309-0.698-0.542-0.917c-0.233-0.219-0.527-0.368-0.887-0.444c-0.266-0.061-0.79-0.092-1.569-0.092H250.905z"/>
	<path fill="#FFFFFF" d="M258.557,104.237v-9.475h7.025v1.603h-5.113v2.101h4.758v1.597h-4.758v2.578h5.295v1.597H258.557z"/>
	<path fill="#FFFFFF" d="M267.393,104.237v-9.475h4.024c1.014,0,1.749,0.086,2.208,0.256s0.825,0.472,1.102,0.908
		c0.275,0.435,0.413,0.932,0.413,1.493c0,0.711-0.207,1.297-0.627,1.762c-0.418,0.462-1.042,0.754-1.873,0.876
		c0.413,0.241,0.754,0.506,1.024,0.793c0.27,0.291,0.631,0.802,1.088,1.539l1.158,1.849h-2.289l-1.383-2.062
		c-0.49-0.737-0.827-1.199-1.008-1.391c-0.18-0.192-0.372-0.324-0.576-0.397c-0.202-0.07-0.522-0.106-0.962-0.106h-0.388v3.956
		H267.393z M269.305,98.77h1.415c0.919,0,1.49-0.038,1.721-0.116c0.226-0.078,0.405-0.211,0.534-0.401
		c0.13-0.188,0.194-0.425,0.194-0.709c0-0.32-0.085-0.576-0.255-0.772c-0.17-0.198-0.409-0.321-0.722-0.372
		c-0.154-0.021-0.619-0.034-1.396-0.034h-1.492V98.77z"/>
</g>
</svg>
